<svg width="44" height="47" viewBox="0 0 44 47" fill="none" xmlns="http://www.w3.org/2000/svg">
<path d="M43.4696 43.3123C43.4097 42.3452 42.9075 41.4598 42.1081 40.9118C40.3023 39.7011 38.5589 38.4 36.8843 37.0139C36.2467 36.3962 35.8612 35.5635 35.8024 34.6778C35.739 33.9027 35.8798 33.1243 36.2109 32.4206C36.7019 31.3126 36.7659 30.0621 36.39 28.9095C36.39 28.8666 36.3471 28.8449 36.3328 28.8091C36.3184 28.7732 36.2899 28.723 36.2611 28.6945L35.1574 27.5052C35.3436 27.319 35.5371 27.1181 35.7521 26.8817C38.4248 23.9438 39.7793 19.9883 39.7793 15.1228V11.3032C39.7793 10.9536 39.6388 10.6187 39.3896 10.3736C39.1404 10.1282 38.8033 9.99356 38.4536 9.99932H37.0205V9.35441C37.0205 8.85826 36.8234 8.38259 36.4728 8.03201C36.1219 7.68108 35.6462 7.48404 35.1504 7.48404H35.0141V4.94029C35.0212 1.68727 25.2837 0.834442 20.1384 0.834442C14.9932 0.834442 5.26258 1.68727 5.26258 4.91883V7.48404H5.14806C4.65191 7.48404 4.17624 7.68108 3.82566 8.03201C3.47473 8.38261 3.27768 8.85831 3.27768 9.35441V9.99932H1.84456C1.4882 9.98364 1.14112 10.1138 0.882654 10.3598C0.624504 10.6058 0.477671 10.9465 0.476074 11.3032V15.1225C0.476074 19.988 1.83049 23.9431 4.49585 26.8814C4.73961 27.161 4.99041 27.4118 5.21241 27.6482V33.4312C5.22649 33.919 5.44817 34.3778 5.82149 34.6922C7.68454 36.4263 14.2843 37.0568 20.1527 37.0568C21.8366 37.0568 23.4489 37.0066 24.8749 36.9135L25.8493 37.9954C25.912 38.0645 25.9875 38.1205 26.0716 38.1605C27.2002 38.6144 28.4513 38.6624 29.6113 38.2964C30.3563 38.0245 31.1598 37.9554 31.9401 38.0958C32.8218 38.2548 33.6115 38.7379 34.1544 39.4503C35.3655 41.2538 36.4778 43.122 37.4865 45.0465C37.9529 45.8964 38.7811 46.4873 39.7366 46.6517C39.9142 46.6796 40.0939 46.694 40.274 46.6946C41.156 46.7004 42.0012 46.3395 42.607 45.6981C43.2129 45.0571 43.5254 44.193 43.4697 43.3124L43.4696 43.3123ZM34.7202 29.0884L26.4441 36.5479L25.9425 35.9891L34.2186 28.5369L34.7202 29.0884ZM33.6235 7.70621L31.8967 8.37254C31.0017 8.71131 30.2317 9.31595 29.6902 10.1047C29.1483 10.8936 28.8607 11.8296 28.8658 12.7864V16.6344C28.869 16.8119 28.7993 16.983 28.6723 17.1072C28.5482 17.2354 28.3777 17.3077 28.1995 17.308C27.83 17.3039 27.5328 17.0035 27.5328 16.6343V12.5142C27.5322 11.8789 27.2737 11.271 26.8163 10.8303C26.3681 10.3911 25.7648 10.1464 25.1371 10.1489C24.5095 10.1515 23.9081 10.401 23.4634 10.8437C23.0185 11.2865 22.7661 11.8866 22.7606 12.5142V18.0317C22.727 18.4959 22.4596 18.9111 22.0511 19.134C21.6426 19.357 21.1486 19.357 20.7402 19.134C20.3313 18.9111 20.0642 18.4959 20.0306 18.0317V11.8549C20.0345 11.3853 19.8454 10.9346 19.5073 10.6082C19.1797 10.2774 18.7335 10.0916 18.2677 10.0922C17.8003 10.0922 17.3518 10.2778 17.0214 10.6085C16.6906 10.939 16.5051 11.3875 16.5051 11.8549V13.7323C16.506 13.9262 16.4286 14.1124 16.2901 14.2483C16.0908 14.4914 15.7568 14.5765 15.4658 14.4582C15.1747 14.3398 14.9946 14.0455 15.0217 13.7323V12.1488C15.0272 11.5644 14.7943 11.003 14.3768 10.5939C13.9648 10.1783 13.404 9.94385 12.819 9.94289C12.2339 9.94161 11.6722 10.1739 11.2585 10.5878C10.8449 11.0017 10.6133 11.5635 10.6149 12.1488V21.6148C10.6168 21.9145 10.4991 22.2024 10.288 22.4148C10.0769 22.6276 9.78959 22.7469 9.48985 22.7469C9.18979 22.7469 8.90157 22.6276 8.68948 22.4155C8.47707 22.2031 8.35775 21.9152 8.35775 21.6148V11.827C8.35935 11.2813 8.19813 10.7473 7.89422 10.294C7.59033 9.84076 7.15783 9.48888 6.6524 9.28317V6.78929C9.51864 8.49462 16.1896 8.99621 20.1385 8.99621C24.0866 8.99621 30.7509 8.49462 33.6245 6.79633L33.6235 7.70621ZM6.65222 10.9522C6.85759 11.1969 6.96924 11.5069 6.96732 11.8265V21.6143C6.89119 22.326 7.12087 23.0365 7.59943 23.5688C8.07767 24.1011 8.75969 24.405 9.47526 24.405C10.1912 24.405 10.8732 24.1011 11.3514 23.5688C11.8297 23.0365 12.0597 22.326 11.9832 21.6143V12.1483C12.0229 11.7286 12.3751 11.4078 12.7967 11.4078C13.2183 11.4078 13.5705 11.7286 13.6099 12.1483V13.7318C13.6099 14.3018 13.8363 14.8489 14.2394 15.2519C14.6428 15.6549 15.1895 15.8814 15.7595 15.8814C16.326 15.8808 16.8692 15.6569 17.2716 15.2579C17.6686 14.8578 17.8926 14.3172 17.8948 13.7532V11.8542C17.8974 11.7045 17.9879 11.5702 18.1254 11.5113C18.2633 11.4525 18.4226 11.4803 18.5327 11.582C18.6011 11.6505 18.6398 11.7432 18.6402 11.8398V18.0311C18.6402 18.7614 18.9306 19.4617 19.4472 19.9777C19.9642 20.4937 20.6647 20.7832 21.3951 20.7822C22.1254 20.7816 22.8253 20.4901 23.3407 19.9729C23.8503 19.4559 24.1314 18.7566 24.1218 18.0311V12.5136C24.1218 11.9634 24.5678 11.5175 25.118 11.5175C25.6679 11.5175 26.1138 11.9634 26.1138 12.5136V16.6338C26.1138 17.3686 26.506 18.0474 27.1423 18.415C27.7786 18.7822 28.5623 18.7822 29.1985 18.415C29.8348 18.0474 30.227 17.3686 30.227 16.6338V12.7858C30.2232 12.108 30.4269 11.4448 30.8115 10.8863C31.1956 10.3278 31.742 9.90042 32.3767 9.66179L33.6019 9.18899V25.8058L28.5574 20.1808C28.2971 19.9047 27.8665 19.8794 27.5757 20.1235L18.2604 28.5142C18.1251 28.639 18.0429 28.8108 18.0311 28.9944C18.024 29.1783 18.0883 29.3581 18.2102 29.496L20.6395 32.1901H20.1305C15.1437 32.2435 10.3231 30.3993 6.64447 27.0308L6.65222 10.9522ZM28.149 25.0827L30.0479 27.2324C30.214 27.4144 30.2012 27.6966 30.0192 27.8629C29.8371 28.029 29.555 28.0162 29.3886 27.8341L28.0272 26.315L27.9843 26.2577L26.9882 25.0968C26.8845 24.902 26.6968 24.7657 26.4795 24.7276C26.262 24.6896 26.0391 24.7535 25.8753 24.9016C25.7115 25.0494 25.6251 25.2647 25.6408 25.4848C25.6568 25.7049 25.7729 25.9055 25.9562 26.0283L26.9882 27.1892C27.0548 27.2695 27.088 27.3719 27.0813 27.4758C27.0762 27.5936 27.0247 27.7043 26.938 27.7839C26.8507 27.8645 26.7342 27.9058 26.6155 27.8987C26.5013 27.8885 26.3945 27.8376 26.3145 27.7554L25.0247 26.3223C24.7643 26.0462 24.3341 26.021 24.0433 26.265L20.2241 29.6757L19.7081 29.1025L27.9915 21.6144L28.5504 22.2449C28.1326 22.7148 27.8808 23.3088 27.8338 23.9361C27.789 24.3478 27.9103 24.7604 28.1707 25.0826L28.149 25.0827ZM21.1411 30.6863L24.4373 27.7414L25.2613 28.68V28.6796C25.5879 29.0408 26.0441 29.2577 26.53 29.283C27.0162 29.3085 27.4926 29.1406 27.855 28.8159C27.9596 28.7161 28.0534 28.6057 28.1346 28.4864L28.3496 28.7302V28.7299C28.7891 29.211 29.4506 29.4231 30.0879 29.2868C30.7252 29.1505 31.2424 28.6864 31.4465 28.0673C31.6503 27.4487 31.5108 26.768 31.0796 26.2791L29.2095 24.1653C29.1858 23.8477 29.2831 23.5329 29.4817 23.284L33.2865 27.5047L25.0105 34.9569L21.1411 30.6863ZM38.3386 11.3892V15.1223C38.3386 19.4217 37.1991 22.9543 34.9637 25.5915L34.9634 13.7826H35.0853C35.5929 13.7979 36.0856 13.6069 36.4499 13.2535C36.8146 12.8997 37.0203 12.4131 37.02 11.9051V11.3891L38.3386 11.3892ZM35.0852 8.87416V8.87384C35.3504 8.87384 35.5654 9.08881 35.5654 9.354V11.9048C35.5673 12.0334 35.5174 12.1572 35.4272 12.249C35.337 12.3405 35.2138 12.392 35.0852 12.392H35.0136V8.8738L35.0852 8.87416ZM20.1382 2.22424C28.8516 2.22424 33.6095 3.99418 33.6243 4.9113C33.6243 5.82841 28.8448 7.5914 20.1382 7.5914C11.4322 7.59108 6.67425 5.84987 6.65214 4.91834C6.66654 3.99386 11.4243 2.22424 20.1382 2.22424ZM4.66789 9.38984C4.66789 9.12465 4.88285 8.90968 5.14805 8.90968H5.26256V12.4279H5.14805C5.01945 12.4279 4.89629 12.3764 4.80608 12.2849C4.71555 12.1931 4.66597 12.0693 4.66789 11.9407V9.38984ZM1.90909 15.1223V11.3888H3.2776V11.9048C3.2776 12.4016 3.47465 12.878 3.82493 13.2298C4.17553 13.5817 4.65123 13.7804 5.14799 13.7823H5.26251V25.5986C3.03413 22.9547 1.90909 19.465 1.90909 15.1229V15.1223ZM6.8319 33.6743V33.6739C6.75128 33.6135 6.69306 33.5277 6.66715 33.4305V28.8873C10.48 31.974 15.247 33.6381 20.1524 33.5952C20.7544 33.5952 21.3133 33.5952 21.8651 33.5235L23.7282 35.5871C16.1685 35.9454 8.35774 35.107 6.81734 33.6739L6.8319 33.6743ZM41.4561 44.8452C41.0501 45.2077 40.5012 45.366 39.9647 45.2752C39.4279 45.1846 38.9615 44.8551 38.6973 44.3794C37.6592 42.407 36.5134 40.493 35.2648 38.6469C34.5118 37.6802 33.4312 37.0225 32.2264 36.7983C31.2274 36.6025 30.1942 36.6742 29.2313 37.0059C28.7867 37.1451 28.3209 37.2036 27.8554 37.178L35.2002 30.5498C35.1785 31.0044 35.0662 31.45 34.8707 31.8611C34.4437 32.7881 34.2658 33.8108 34.3547 34.8278C34.4494 36.0495 34.9932 37.1931 35.881 38.0379C37.6026 39.4665 39.3966 40.8056 41.2552 42.0506C41.7011 42.3638 41.9804 42.8628 42.0136 43.4064C42.0472 43.9502 41.8313 44.4796 41.4273 44.8452L41.4561 44.8452Z" fill="white"/>
</svg>
